<svg width="81" height="84" viewBox="0 0 81 84" fill="none" xmlns="http://www.w3.org/2000/svg">
<g clip-path="url(#clip0_1_14)">
<path d="M20.8438 63.8343C21.8415 60.1146 24.8125 57.2197 28.7812 57.2197H35.3958C40.6875 57.2197 42.0104 54.0447 42.0104 51.3988C42.0104 47.4301 35.3958 47.4301 35.3958 47.4301H8.9375L3.64583 58.0134L6.29167 63.3051L1 73.8884" stroke="black" stroke-width="2"/>
<path d="M40.9521 54.0447L53.9167 54.0447L72.4375 43.4613C72.4375 43.4613 76.4062 40.8155 79.0521 43.4613C81.6979 46.1072 77.7292 50.0759 77.7292 50.0759L56.5625 65.9509L45.9792 69.9197L26.1354 71.2426L20.8438 80.503" stroke="black" stroke-width="2"/>
<path d="M55.2396 52.7218L61.8542 39.4926C61.8542 39.4926 64.5 36.8468 68.4687 38.1697C72.4375 39.4926 69.7917 44.7843 69.7917 44.7843L55.2396 52.7218Z" stroke="black" stroke-width="2"/>
<path d="M56.5625 50.0759C56.5625 48.753 55.2396 39.4926 55.2396 39.4926C55.2396 39.4926 53.5983 33.9664 49.9479 35.5238C39.4358 40.0088 33.3159 37.9614 27.4583 35.5238C27.4583 35.5238 23.9592 34.6518 22.6362 37.2976C21.3133 39.9434 20.8438 47.4301 20.8438 47.4301H36.7188C36.7708 47.1514 43.3333 47.4301 42.2117 53.508C41.9716 54.809 53.9167 54.0447 53.9167 54.0447L56.5625 50.0759Z" stroke="black" stroke-width="1.5"/>
<path d="M39.0233 37.3056C53.1195 37.3056 64.5467 29.1756 64.5467 19.1468C64.5467 9.11789 53.1195 0.987885 39.0233 0.987885C24.9271 0.987885 13.4999 9.11789 13.4999 19.1468C13.4999 29.1756 24.9271 37.3056 39.0233 37.3056Z" stroke="black" stroke-width="1.97574" stroke-linecap="round" stroke-linejoin="round"/>
<path d="M8.82693 27.8622C10.834 28.3957 14.6122 23.6402 17.2659 17.2404C19.9196 10.8407 20.4438 5.22024 18.4368 4.68674C16.4298 4.15325 12.6515 8.90877 9.99782 15.3085C7.34413 21.7082 6.8199 27.3287 8.82693 27.8622Z" fill="black" stroke="black" stroke-width="2.13059" stroke-linecap="round" stroke-linejoin="round"/>
<path d="M70.4934 27.8622C68.4864 28.3957 64.7081 23.6402 62.0544 17.2404C59.4007 10.8407 58.8765 5.22024 60.8835 4.68674C62.8905 4.15325 66.6688 8.90877 69.3225 15.3085C71.9762 21.7082 72.5004 27.3287 70.4934 27.8622Z" fill="black" stroke="black" stroke-width="2.13059" stroke-linecap="round" stroke-linejoin="round"/>
<path d="M25.7517 20.0701C26.4823 20.0701 27.0746 19.4778 27.0746 18.7472C27.0746 18.0165 26.4823 17.4243 25.7517 17.4243C25.021 17.4243 24.4287 18.0165 24.4287 18.7472C24.4287 19.4778 25.021 20.0701 25.7517 20.0701Z" fill="black" stroke="black" stroke-width="2" stroke-linecap="round" stroke-linejoin="round"/>
<path d="M54.195 20.0701C54.9256 20.0701 55.5179 19.4778 55.5179 18.7472C55.5179 18.0165 54.9256 17.4243 54.195 17.4243C53.4643 17.4243 52.872 18.0165 52.872 18.7472C52.872 19.4778 53.4643 20.0701 54.195 20.0701Z" fill="black" stroke="black" stroke-width="2" stroke-linecap="round" stroke-linejoin="round"/>
<path d="M39.0233 26.6537C40.4631 26.6537 41.6302 26.1773 41.6302 25.5897C41.6302 25.002 40.4631 24.5257 39.0233 24.5257C37.5835 24.5257 36.4164 25.002 36.4164 25.5897C36.4164 26.1773 37.5835 26.6537 39.0233 26.6537Z" fill="black" stroke="black" stroke-width="2.51785" stroke-linecap="round" stroke-linejoin="round"/>
<path d="M19.5208 46.9009C19.5208 46.9009 22.1667 42.9322 16.875 38.9634C11.5833 34.9947 3.64584 37.6405 2.32292 28.3801" stroke="black" stroke-width="3" stroke-linecap="round"/>
<path d="M1 73.8884C1 73.8884 7.61458 87.1176 20.8438 80.503" stroke="black" stroke-width="2" stroke-linecap="round"/>
</g>
<defs>
<clipPath id="clip0_1_14">
<rect width="80.9616" height="83.3268" fill="white"/>
</clipPath>
</defs>
</svg>
