<?xml version="1.0" encoding="UTF-8" standalone="no"?>
<!-- Created with Inkscape (http://www.inkscape.org/) -->

<svg
   width="266.95901"
   height="45"
   viewBox="0 0 266.95901 45"
   version="1.1"
   id="svg1"
   xml:space="preserve"
   inkscape:version="1.3.2 (091e20ef0f, 2023-11-25)"
   sodipodi:docname="tmh-icon-hp.svg"
   inkscape:export-filename="tmhicon.png"
   inkscape:export-xdpi="96"
   inkscape:export-ydpi="96"
   xmlns:inkscape="http://www.inkscape.org/namespaces/inkscape"
   xmlns:sodipodi="http://sodipodi.sourceforge.net/DTD/sodipodi-0.dtd"
   xmlns:xlink="http://www.w3.org/1999/xlink"
   xmlns="http://www.w3.org/2000/svg"
   xmlns:svg="http://www.w3.org/2000/svg"><sodipodi:namedview
     id="namedview1"
     pagecolor="#505050"
     bordercolor="#ffffff"
     borderopacity="1"
     inkscape:showpageshadow="0"
     inkscape:pageopacity="0"
     inkscape:pagecheckerboard="1"
     inkscape:deskcolor="#505050"
     inkscape:document-units="px"
     inkscape:zoom="1.7817059"
     inkscape:cx="136.9474"
     inkscape:cy="39.849449"
     inkscape:window-width="1366"
     inkscape:window-height="697"
     inkscape:window-x="0"
     inkscape:window-y="0"
     inkscape:window-maximized="1"
     inkscape:current-layer="layer1" /><defs
     id="defs1"><linearGradient
       id="linearGradient1"
       inkscape:collect="always"><stop
         style="stop-color:#f56001;stop-opacity:1"
         offset="0"
         id="stop1" /><stop
         style="stop-color:#ffcc00;stop-opacity:1"
         offset="1"
         id="stop2" /></linearGradient><linearGradient
       inkscape:collect="always"
       xlink:href="#linearGradient1"
       id="linearGradient2"
       x1="22.5"
       y1="0"
       x2="22.5"
       y2="45"
       gradientUnits="userSpaceOnUse" /><clipPath
       id="clip0_1_14"><rect
         width="80.961601"
         height="83.326797"
         fill="#ffffff"
         id="rect12"
         x="0"
         y="0" /></clipPath></defs><g
     inkscape:label="Camada 1"
     inkscape:groupmode="layer"
     id="layer1"><rect
       style="fill:url(#linearGradient2);fill-opacity:1"
       id="rect1"
       width="45"
       height="45"
       x="0"
       y="0"
       rx="8"
       ry="8" /><g
       style="fill:none"
       id="g2"
       transform="matrix(0.35823428,0,0,0.35823428,7.9983909,8.8336453)"><g
         clip-path="url(#clip0_1_14)"
         id="g12"><path
           d="m 20.8438,63.8343 c 0.9977,-3.7197 3.9687,-6.6146 7.9374,-6.6146 h 6.6146 c 5.2917,0 6.6146,-3.175 6.6146,-5.8209 0,-3.9687 -6.6146,-3.9687 -6.6146,-3.9687 H 8.9375 L 3.64583,58.0134 6.29167,63.3051 1,73.8884"
           stroke="#000000"
           stroke-width="2"
           id="path1" /><path
           d="M 40.9521,54.0447 H 53.9167 L 72.4375,43.4613 c 0,0 3.9687,-2.6458 6.6146,0 2.6458,2.6459 -1.3229,6.6146 -1.3229,6.6146 l -21.1667,15.875 -10.5833,3.9688 -19.8438,1.3229 -5.2916,9.2604"
           stroke="#000000"
           stroke-width="2"
           id="path2" /><path
           d="m 55.2396,52.7218 6.6146,-13.2292 c 0,0 2.6458,-2.6458 6.6145,-1.3229 3.9688,1.3229 1.323,6.6146 1.323,6.6146 z"
           stroke="#000000"
           stroke-width="2"
           id="path3" /><path
           d="m 56.5625,50.0759 c 0,-1.3229 -1.3229,-10.5833 -1.3229,-10.5833 0,0 -1.6413,-5.5262 -5.2917,-3.9688 -10.5121,4.485 -16.632,2.4376 -22.4896,0 0,0 -3.4991,-0.872 -4.8221,1.7738 -1.3229,2.6458 -1.7924,10.1325 -1.7924,10.1325 h 15.875 c 0.052,-0.2787 6.6145,0 5.4929,6.0779 -0.2401,1.301 11.705,0.5367 11.705,0.5367 z"
           stroke="#000000"
           stroke-width="1.5"
           id="path4" /><path
           d="m 39.0233,37.3056 c 14.0962,0 25.5234,-8.13 25.5234,-18.1588 0,-10.02891 -11.4272,-18.158915 -25.5234,-18.158915 -14.0962,0 -25.5234,8.130005 -25.5234,18.158915 0,10.0288 11.4272,18.1588 25.5234,18.1588 z"
           stroke="#000000"
           stroke-width="1.97574"
           stroke-linecap="round"
           stroke-linejoin="round"
           id="path5" /><path
           d="M 8.82693,27.8622 C 10.834,28.3957 14.6122,23.6402 17.2659,17.2404 19.9196,10.8407 20.4438,5.22024 18.4368,4.68674 16.4298,4.15325 12.6515,8.90877 9.99782,15.3085 7.34413,21.7082 6.8199,27.3287 8.82693,27.8622 Z"
           fill="#000000"
           stroke="#000000"
           stroke-width="2.13059"
           stroke-linecap="round"
           stroke-linejoin="round"
           id="path6" /><path
           d="m 70.4934,27.8622 c -2.007,0.5335 -5.7853,-4.222 -8.439,-10.6218 -2.6537,-6.3997 -3.1779,-12.02016 -1.1709,-12.55366 2.007,-0.53349 5.7853,4.22203 8.439,10.62176 2.6537,6.3997 3.1779,12.0202 1.1709,12.5537 z"
           fill="#000000"
           stroke="#000000"
           stroke-width="2.13059"
           stroke-linecap="round"
           stroke-linejoin="round"
           id="path7" /><path
           d="m 25.7517,20.0701 c 0.7306,0 1.3229,-0.5923 1.3229,-1.3229 0,-0.7307 -0.5923,-1.3229 -1.3229,-1.3229 -0.7307,0 -1.323,0.5922 -1.323,1.3229 0,0.7306 0.5923,1.3229 1.323,1.3229 z"
           fill="#000000"
           stroke="#000000"
           stroke-width="2"
           stroke-linecap="round"
           stroke-linejoin="round"
           id="path8" /><path
           d="m 54.195,20.0701 c 0.7306,0 1.3229,-0.5923 1.3229,-1.3229 0,-0.7307 -0.5923,-1.3229 -1.3229,-1.3229 -0.7307,0 -1.323,0.5922 -1.323,1.3229 0,0.7306 0.5923,1.3229 1.323,1.3229 z"
           fill="#000000"
           stroke="#000000"
           stroke-width="2"
           stroke-linecap="round"
           stroke-linejoin="round"
           id="path9" /><path
           d="m 39.0233,26.6537 c 1.4398,0 2.6069,-0.4764 2.6069,-1.064 0,-0.5877 -1.1671,-1.064 -2.6069,-1.064 -1.4398,0 -2.6069,0.4763 -2.6069,1.064 0,0.5876 1.1671,1.064 2.6069,1.064 z"
           fill="#000000"
           stroke="#000000"
           stroke-width="2.51785"
           stroke-linecap="round"
           stroke-linejoin="round"
           id="path10" /><path
           d="m 19.5208,46.9009 c 0,0 2.6459,-3.9687 -2.6458,-7.9375 C 11.5833,34.9947 3.64584,37.6405 2.32292,28.3801"
           stroke="#000000"
           stroke-width="3"
           stroke-linecap="round"
           id="path11" /><path
           d="m 1,73.8884 c 0,0 6.61458,13.2292 19.8438,6.6146"
           stroke="#000000"
           stroke-width="2"
           stroke-linecap="round"
           id="path12" /></g></g><text
       xml:space="preserve"
       style="font-size:32px;font-family:'Leckerli One';-inkscape-font-specification:'Leckerli One';text-align:center;text-anchor:middle;fill:#000000;fill-opacity:1"
       x="157.798"
       y="34.228001"
       id="text2"><tspan
         sodipodi:role="line"
         id="tspan2"
         x="157.798"
         y="34.228001"
         style="font-size:32px;fill:#000000">Take me Home</tspan></text></g></svg>
